<svg xmlns="http://www.w3.org/2000/svg" viewBox="0 0 64 64">
  <defs>
    <filter id="pin-shadow" x="-30%" y="-20%" width="160%" height="160%" color-interpolation-filters="sRGB">
      <feDropShadow dx="0" dy="3" stdDeviation="3" flood-color="#020617" flood-opacity="0.35" />
    </filter>
  </defs>
  <rect width="64" height="64" rx="14" fill="#020617" />
  <path
    d="M32 59C32 59 11 35.7 11 21.6C11 9.8 20.1 3 32 3C43.9 3 53 9.8 53 21.6C53 35.7 32 59 32 59Z"
    fill="#f8fafc"
    filter="url(#pin-shadow)"
  />
  <path
    d="M32 51.5C32 51.5 17.2 33.3 17.2 21.9C17.2 13.4 23.6 8.3 32 8.3C40.4 8.3 46.8 13.4 46.8 21.9C46.8 33.3 32 51.5 32 51.5Z"
    fill="#34d399"
  />
  <circle cx="32" cy="21.8" r="8.4" fill="#f8fafc" />
</svg>
